<svg width="75" height="66" viewBox="0 0 75 66" fill="none" xmlns="http://www.w3.org/2000/svg">
<path d="M4.65479 0C2.04811 0 0 2.04811 0 4.65479C0 7.26147 2.04811 9.30958 4.65479 9.30958C7.26147 9.30958 9.30958 7.26147 9.30958 4.65479C9.30958 2.04811 7.26147 0 4.65479 0ZM18.6192 0V9.30958H74.4766V0H18.6192ZM4.65479 18.6192C2.04811 18.6192 0 20.6673 0 23.2739C0 25.8806 2.04811 27.9287 4.65479 27.9287C7.26147 27.9287 9.30958 25.8806 9.30958 23.2739C9.30958 20.6673 7.26147 18.6192 4.65479 18.6192ZM18.6192 18.6192V27.9287H74.4766V18.6192H18.6192ZM4.65479 37.2383C2.04811 37.2383 0 39.2864 0 41.8931C0 44.4998 2.04811 46.5479 4.65479 46.5479C7.26147 46.5479 9.30958 44.4998 9.30958 41.8931C9.30958 39.2864 7.26147 37.2383 4.65479 37.2383ZM18.6192 37.2383V46.5479H74.4766V37.2383H18.6192ZM4.65479 55.8575C2.04811 55.8575 0 57.9056 0 60.5123C0 63.1189 2.04811 65.1671 4.65479 65.1671C7.26147 65.1671 9.30958 63.1189 9.30958 60.5123C9.30958 57.9056 7.26147 55.8575 4.65479 55.8575ZM18.6192 55.8575V65.1671H74.4766V55.8575H18.6192Z" fill="#0A54E7"/>
</svg>
