<svg width="67" height="76" viewBox="0 0 67 76" fill="none" xmlns="http://www.w3.org/2000/svg">
<path d="M28.3575 0C23.1586 0 18.905 4.25362 18.905 9.4525H9.4525C4.25362 9.4525 0 13.7061 0 18.905H66.1675C66.1675 13.7061 61.9139 9.4525 56.715 9.4525H47.2625C47.2625 4.25362 43.0089 0 37.81 0H28.3575ZM9.4525 28.3575V73.824C9.4525 74.8638 10.2087 75.62 11.2485 75.62H55.0136C56.0533 75.62 56.8095 74.8638 56.8095 73.824V28.3575H47.357V61.4413C47.357 64.088 45.2775 66.1675 42.6308 66.1675C39.9841 66.1675 37.9045 64.088 37.9045 61.4413V28.3575H28.452V61.4413C28.452 64.088 26.3725 66.1675 23.7258 66.1675C21.0791 66.1675 18.9995 64.088 18.9995 61.4413V28.3575H9.54703H9.4525Z" fill="#0A54E7"/>
</svg>
