<svg width="76" height="76" viewBox="0 0 76 76" fill="none" xmlns="http://www.w3.org/2000/svg">
<path d="M32.7891 0.0936831C14.7082 0.0936831 0 14.8019 0 32.8828C0 50.9636 14.7082 65.6718 32.7891 65.6718C38.3164 65.6718 43.75 64.3603 48.3405 61.8308C48.7082 62.2733 49.1159 62.681 49.5584 63.0487L58.9267 72.417C59.7917 73.3904 60.8466 74.1767 62.0265 74.7276C63.2064 75.2786 64.4865 75.5825 65.7881 75.6208C67.0898 75.6592 68.3855 75.431 69.5958 74.9504C70.8061 74.4699 71.9054 73.747 72.8262 72.8262C73.747 71.9054 74.4699 70.8061 74.9505 69.5958C75.431 68.3855 75.6592 67.0898 75.6208 65.7881C75.5825 64.4865 75.2786 63.2064 74.7276 62.0265C74.1767 60.8466 73.3904 59.7917 72.417 58.9267L63.0487 49.5584C62.5924 49.1018 62.0901 48.6937 61.5498 48.3405C64.0792 43.75 65.6719 38.4101 65.6719 32.7891C65.6719 14.7082 50.9636 0 32.8828 0L32.7891 0.0936831ZM32.7891 9.46199C45.811 9.46199 56.2099 19.8608 56.2099 32.8828C56.2099 39.0658 53.9615 44.7805 50.0268 48.9963C49.9331 49.0899 49.8394 49.1836 49.7457 49.2773C49.3032 49.645 48.8955 50.0527 48.5278 50.4952C44.4058 54.2425 38.7848 56.3972 32.6954 56.3972C19.6734 56.3972 9.27463 45.9984 9.27463 32.9764C9.27463 19.9545 19.6734 9.55567 32.6954 9.55567L32.7891 9.46199Z" fill="#0A54E7"/>
</svg>
