<?xml version="1.0" standalone="no"?>
<!DOCTYPE svg PUBLIC "-//W3C//DTD SVG 20010904//EN"
 "http://www.w3.org/TR/2001/REC-SVG-20010904/DTD/svg10.dtd">
<svg version="1.0" xmlns="http://www.w3.org/2000/svg"
 width="550" height="626" viewBox="0 0 1308.000000 980.000000"
 preserveAspectRatio="xMidYMid meet">

<g transform="translate(0.000000,980.000000) scale(0.100000,-0.100000)"
fill="#000000" stroke="none">
<path d="M3923 8260 c-164 -43 -359 -161 -409 -246 -41 -70 -52 -144 -60 -399
-7 -209 -9 -233 -27 -257 -28 -38 -28 -136 0 -198 33 -72 126 -150 178 -150
27 0 36 -49 42 -218 5 -136 4 -165 -9 -180 -28 -32 -73 -117 -109 -207 l-36
-90 -179 -7 c-412 -15 -883 -49 -1274 -93 -250 -28 -252 -29 -266 -132 -14
-97 -11 -2032 4 -2363 24 -580 33 -765 37 -786 5 -21 12 -22 172 -29 157 -8
751 7 886 22 l57 6 0 -522 0 -521 29 -6 28 -6 7 -106 c11 -155 63 -664 71
-684 4 -10 23 -22 44 -27 43 -11 576 -16 1284 -12 402 2 510 6 521 16 21 21
82 516 93 750 7 163 13 185 47 185 35 0 56 25 56 67 0 40 -67 1074 -74 1146
l-5 47 34 0 c53 0 169 -27 250 -59 120 -46 231 -127 352 -257 59 -64 122 -124
138 -134 17 -11 59 -46 94 -79 35 -33 80 -66 100 -72 20 -7 47 -20 60 -30 47
-37 98 -21 236 76 l60 42 225 12 c380 19 698 31 860 31 145 0 156 -1 168 -20
19 -31 57 -42 104 -29 30 8 53 7 90 -2 37 -10 56 -10 78 -2 20 8 32 8 36 1 4
-6 24 -18 45 -28 72 -31 165 -2 268 85 24 19 46 35 49 35 4 0 84 7 177 15 94
8 283 18 420 21 l250 6 46 29 c25 16 48 29 51 29 3 0 -3 -42 -14 -92 -39 -188
-98 -519 -127 -718 -58 -397 -121 -1034 -104 -1051 27 -25 896 -39 1198 -19
83 6 245 15 360 20 242 10 291 21 357 80 55 48 71 85 97 226 147 778 82 1644
-172 2268 -37 93 -39 103 -34 170 4 39 34 168 67 286 102 361 126 518 117 745
-10 241 -50 391 -167 625 -39 78 -70 143 -68 144 2 1 23 8 48 16 42 14 48 20
82 89 75 152 127 397 128 598 0 237 -76 549 -175 718 -39 68 -155 170 -237
209 -132 63 -175 71 -358 71 -191 0 -301 -21 -430 -82 -143 -68 -268 -239
-305 -418 -25 -118 -16 -164 36 -186 29 -11 29 -12 29 -99 0 -105 -11 -140
-50 -162 -17 -10 -33 -24 -36 -33 -11 -28 6 -65 40 -87 l34 -22 4 -106 c5
-127 28 -189 94 -250 59 -54 123 -80 210 -87 l72 -6 30 -96 c28 -91 29 -97 12
-116 -31 -36 -323 -538 -387 -665 -131 -261 -134 -373 -22 -942 l23 -116 -43
-94 c-23 -51 -45 -100 -50 -108 -8 -14 -88 -36 -98 -27 -4 4 -72 1077 -73
1145 0 15 6 22 20 22 12 0 22 9 26 23 6 27 -13 368 -22 376 -10 10 -444 2
-799 -14 -559 -25 -2097 -108 -2227 -120 -51 -4 -57 -2 -63 16 -4 13 -29 31
-62 46 -117 54 -224 7 -425 -184 -71 -68 -128 -115 -145 -119 -121 -26 -200
-52 -348 -113 -93 -38 -173 -67 -177 -65 -4 3 -8 16 -8 30 0 36 -66 328 -105
469 -44 154 -124 389 -180 526 -34 82 -43 116 -38 142 5 31 0 40 -48 93 l-53
58 38 17 c20 9 42 21 47 26 17 17 -239 321 -282 335 -7 2 -10 65 -10 178 l2
175 39 37 c126 119 166 284 158 647 l-5 211 24 0 c76 0 84 53 18 117 -39 37
-51 59 -81 146 -56 163 -125 299 -167 331 -74 57 -276 117 -389 115 -29 0 -86
-9 -125 -19z m531 -564 c137 -69 136 -68 147 -183 17 -200 7 -431 -26 -555
-24 -92 -55 -149 -115 -208 -79 -79 -130 -95 -290 -94 -109 0 -135 4 -204 27
-89 31 -146 67 -199 126 -47 52 -76 110 -84 167 -7 50 -24 74 -54 74 -32 0
-93 36 -126 74 -40 45 -56 96 -50 159 8 83 71 114 123 61 40 -39 66 -29 80 31
29 127 33 135 64 135 34 0 103 25 140 51 39 27 126 34 183 14 49 -17 67 -14
67 10 0 18 -25 32 -75 40 -22 4 -47 9 -55 11 -21 7 69 62 150 91 55 20 78 23
149 19 75 -4 93 -9 175 -50z m-822 -181 c3 -4 -1 -32 -10 -65 -16 -57 -16 -58
-39 -43 -28 19 -29 38 -3 81 18 29 39 40 52 27z m238 -843 c101 -49 179 -66
310 -65 78 0 131 5 165 17 28 8 52 16 55 16 4 0 -4 -523 -8 -526 -1 -1 -13 -5
-27 -8 -22 -6 -42 7 -128 77 -114 94 -247 193 -382 285 -49 33 -104 76 -121
94 -31 32 -32 36 -37 144 l-5 110 56 -56 c34 -33 84 -69 122 -88z m5994 -52
c45 -23 72 -30 117 -30 67 0 62 8 79 -130 18 -148 24 -407 11 -535 -11 -118
-46 -275 -61 -275 -4 0 -17 34 -29 75 -26 90 -40 101 -136 107 -79 6 -132 28
-184 80 -58 57 -75 108 -77 233 l-2 110 -36 18 c-44 23 -46 46 -6 69 40 23 49
51 57 174 3 57 9 104 13 104 4 0 6 -10 6 -22 -1 -22 2 -23 89 -23 90 0 90 0
88 25 -1 24 3 50 9 50 2 0 30 -14 62 -30z m-6434 -355 c0 -2 -26 -18 -57 -35
-103 -58 -246 -163 -327 -240 -101 -96 -162 -182 -193 -273 -24 -67 -25 -81
-20 -207 3 -74 16 -191 28 -260 20 -112 22 -154 20 -405 -3 -308 8 -504 42
-755 20 -147 22 -202 20 -505 -2 -187 -6 -401 -10 -475 l-8 -135 -90 -7 c-49
-3 -289 -10 -532 -14 l-441 -7 -6 64 c-16 177 -42 1002 -51 1599 -7 476 10
1507 25 1525 6 7 34 15 63 18 503 57 998 95 1417 110 36 1 77 3 93 4 15 1 27
0 27 -2z m309 -23 l54 -18 -59 -35 c-32 -19 -60 -42 -62 -50 -2 -10 21 -26 72
-48 41 -18 77 -39 80 -47 16 -43 53 -308 72 -511 l6 -73 -29 0 c-15 0 -43 -4
-61 -9 -17 -5 -32 -9 -32 -8 0 15 -117 323 -145 382 -42 89 -143 261 -185 315
-45 59 -46 57 27 95 64 33 73 35 138 30 39 -2 94 -13 124 -23z m796 -314 c47
-79 59 -125 51 -192 -4 -31 -11 -56 -15 -56 -3 0 -15 32 -25 72 -22 84 -80
201 -131 263 -40 50 -41 52 -17 58 22 6 91 -68 137 -145z m6203 -421 c218
-393 239 -803 73 -1402 -22 -77 -49 -191 -62 -252 -19 -95 -25 -113 -41 -113
-22 0 -22 0 -3 205 27 305 37 541 33 800 -5 279 -9 305 -63 387 -49 74 -160
101 -231 57 -88 -54 -165 -249 -193 -489 -18 -146 -40 -438 -52 -676 -6 -126
-12 -234 -14 -240 -2 -7 -48 -6 -151 3 -145 12 -407 42 -410 46 -2 4 -74 375
-90 467 -22 128 -22 296 0 385 26 101 96 242 238 481 69 115 144 241 167 280
l42 71 107 7 c132 8 325 31 457 55 151 27 135 33 193 -72z m-6838 -176 c0 -85
-1 -90 -22 -93 -20 -3 -26 6 -50 76 -15 44 -26 82 -23 85 3 2 24 8 48 12 23 3
43 7 45 8 1 0 2 -39 2 -88z m-1 -198 l-1 -58 -14 50 c-17 63 -17 65 1 65 12 0
15 -13 14 -57z m6678 18 c53 -25 90 -79 104 -156 18 -95 5 -731 -20 -1010 -40
-450 -49 -506 -104 -609 -69 -129 -190 -172 -560 -196 -232 -16 -531 9 -765
64 -56 13 -62 13 -77 -4 -25 -27 -374 -246 -447 -280 -35 -16 -83 -34 -107
-39 l-45 -10 29 23 c16 13 25 28 21 34 -10 17 -23 15 -72 -9 -24 -11 -57 -19
-74 -17 l-31 3 60 44 c34 24 61 49 61 56 0 30 -33 23 -86 -17 -58 -43 -141
-72 -175 -60 -17 7 -11 14 43 52 78 55 158 129 158 146 0 31 -24 21 -92 -36
-102 -86 -200 -143 -249 -144 -21 -1 -39 3 -41 9 -3 12 210 198 341 296 71 54
103 84 115 112 31 71 18 121 -53 196 -35 37 -37 64 -5 69 11 2 142 -36 290
-83 l268 -86 166 32 c91 17 329 65 530 106 201 41 391 79 424 85 59 12 77 28
58 51 -11 13 3 289 33 675 35 451 100 665 215 711 35 14 39 13 87 -8z m-1272
-167 c4 -85 5 -157 3 -159 -4 -4 -418 -28 -838 -50 -326 -16 -917 -40 -1398
-55 -346 -11 -352 -10 -352 47 0 35 -20 60 -53 68 -12 3 -114 9 -227 15 -191
9 -291 24 -342 51 -12 7 -18 22 -18 48 l0 38 108 6 c542 33 1717 93 2387 122
198 8 385 17 415 18 30 2 112 4 181 5 l126 2 8 -156z m-3141 81 c21 -9 36 -18
34 -20 -2 -2 -32 -5 -66 -6 -85 -3 -92 -10 -101 -90 -1 -3 -13 -4 -27 -1 -22
4 -25 2 -22 -18 4 -31 84 -75 184 -101 58 -15 122 -22 239 -25 214 -6 265 -12
265 -29 0 -32 -40 -37 -236 -33 -162 3 -194 1 -199 -11 -12 -32 15 -36 236
-37 183 -1 223 -4 236 -17 14 -13 12 -17 -13 -34 -24 -15 -49 -18 -174 -18
-80 0 -172 2 -205 5 -55 5 -60 3 -60 -15 0 -28 54 -37 232 -39 162 -1 183 -8
116 -40 -46 -22 -180 -31 -286 -19 -61 7 -80 6 -89 -4 -7 -9 -8 -17 -1 -24 16
-16 182 -31 266 -24 84 7 99 -3 46 -30 -21 -11 -127 -27 -322 -47 -269 -29
-298 -30 -372 -18 -44 7 -108 15 -143 17 l-62 5 -258 -129 c-463 -232 -875
-393 -1349 -527 -89 -25 -172 -46 -186 -46 -38 0 -70 32 -136 137 -33 54 -112
179 -175 278 -141 219 -150 235 -139 245 8 8 517 190 531 190 5 0 21 -41 35
-90 15 -50 37 -100 48 -111 19 -19 29 -21 86 -15 292 30 781 160 1113 297 241
99 276 111 349 124 87 16 151 55 239 149 69 74 116 111 202 160 70 40 93 41
164 11z m3100 -332 c3 -21 20 -283 37 -582 24 -414 29 -545 20 -550 -7 -4 -67
-18 -135 -30 l-123 -22 -224 72 c-310 99 -315 101 -345 97 -36 -4 -69 -48 -60
-82 3 -14 26 -48 51 -76 38 -43 45 -57 45 -92 0 -35 -6 -47 -42 -82 -24 -22
-81 -70 -128 -106 -47 -36 -123 -98 -170 -139 -47 -41 -92 -80 -101 -88 -12
-10 -205 -20 -820 -42 -442 -17 -855 -33 -916 -36 l-113 -6 0 210 c0 216 -16
757 -29 1006 -4 77 -5 143 -2 147 4 4 72 14 151 23 80 9 158 20 175 26 39 13
85 58 85 83 0 12 15 33 35 49 22 17 35 37 35 51 0 14 9 28 24 36 14 7 30 25
36 40 l12 28 131 1 c176 2 905 28 1302 46 500 24 918 45 940 49 11 2 43 4 72
5 l51 1 6 -37z m-3494 -398 c36 -8 99 -14 141 -15 l76 0 7 -52 c3 -29 6 -114
6 -188 0 -136 14 -471 26 -654 l7 -99 -29 20 c-59 41 -117 64 -227 89 -288 64
-502 168 -702 341 l-80 69 -3 90 -3 89 138 63 c76 35 224 107 328 161 107 56
203 99 220 99 17 1 59 -5 95 -13z m390 -52 c0 -27 5 -133 10 -238 5 -104 14
-391 20 -637 l10 -447 -43 -40 -42 -40 -7 52 c-20 161 -53 739 -64 1143 -8
273 -14 250 74 253 l42 1 0 -47z m-2587 -323 l48 -79 -20 -38 c-100 -190 -382
-574 -586 -798 l-36 -40 5 185 c4 102 9 220 13 262 l6 78 76 62 c95 78 285
268 371 371 35 42 67 77 70 77 3 0 27 -36 53 -80z m1644 -347 c163 -106 350
-182 550 -222 113 -23 137 -32 210 -79 60 -40 57 -29 73 -237 14 -190 15 -178
-12 -164 -66 34 -132 86 -154 121 -28 44 -54 50 -54 13 0 -38 73 -110 165
-163 88 -51 155 -106 155 -128 0 -19 3 -20 -154 31 -157 50 -198 74 -265 159
-157 197 -348 310 -598 353 -54 9 -99 17 -100 17 -1 1 -6 75 -12 166 -6 91
-14 196 -17 234 l-6 68 68 -57 c37 -32 105 -82 151 -112z m4598 147 c98 -11
180 -22 183 -25 3 -3 0 -5 -6 -5 -6 0 -109 -20 -229 -45 -119 -25 -219 -45
-220 -45 -9 0 0 29 23 81 21 46 32 59 49 59 12 0 102 -9 200 -20z m950 -125
c108 -243 180 -512 227 -841 20 -140 22 -201 22 -514 1 -302 -3 -387 -22 -570
-40 -379 -80 -509 -171 -559 -40 -22 -59 -25 -240 -32 -108 -5 -268 -13 -356
-18 -315 -19 -585 -23 -875 -12 -162 7 -303 14 -313 17 -22 7 -21 33 18 429
43 422 95 774 181 1204 24 123 44 225 44 227 0 1 29 25 64 52 58 46 64 55 70
97 7 44 9 46 34 41 64 -14 239 -26 393 -26 189 0 346 13 471 40 239 52 327
163 363 463 7 55 8 57 37 57 26 0 32 -6 53 -55z m-1449 -458 c39 -9 50 -17 52
-34 2 -13 0 -23 -5 -24 -4 0 -83 -8 -175 -17 -93 -10 -168 -16 -168 -14 0 1
37 27 83 57 90 60 97 61 213 32z m4 -111 c0 -2 -46 -37 -102 -78 l-103 -73
-200 -2 c-110 -1 -193 0 -185 4 8 3 56 29 105 59 l90 53 190 19 c105 11 193
20 198 21 4 0 7 -1 7 -3z m-1261 -100 c27 -29 67 -38 113 -25 26 7 44 5 71 -6
20 -8 49 -15 66 -15 16 0 44 -6 62 -14 33 -14 33 -14 9 -19 -38 -8 -350 -37
-388 -37 -18 0 -42 -5 -53 -10 -14 -8 -27 -7 -48 5 -35 17 -84 20 -112 5 -14
-8 -32 -6 -69 7 -46 16 -52 17 -82 1 -27 -13 -96 -18 -408 -27 -349 -11 -659
-24 -807 -35 -35 -3 -65 -1 -68 5 -8 13 -102 11 -127 -2 -17 -9 -25 -7 -46 15
l-26 26 38 39 c48 49 34 47 461 61 298 10 564 20 1045 39 348 14 343 14 369
-13z m-358 -157 c24 -12 16 -29 -14 -29 -29 0 -51 15 -43 29 9 14 32 14 57 0z
m153 1 c35 -13 33 -30 -3 -30 -53 0 -83 23 -43 33 9 3 18 5 19 6 1 0 13 -3 27
-9z m301 -15 c-31 -25 -105 -55 -136 -55 -32 0 -69 23 -69 42 0 23 52 25 70 3
18 -22 50 -19 50 4 0 15 8 21 38 24 80 8 80 8 47 -18z m-1865 -32 c-1 -11
-119 -90 -153 -103 -18 -6 -35 -7 -45 -1 -15 8 -13 11 11 20 16 6 36 11 45 11
23 0 37 11 51 37 6 13 26 27 44 32 42 12 47 12 47 4z m-271 -34 c43 -13 46
-29 6 -29 -13 0 -37 12 -52 26 -16 15 -21 24 -12 21 10 -3 35 -11 58 -18z"/>
<path d="M4435 7634 c-102 -23 -129 -40 -101 -63 8 -7 27 -6 62 5 27 8 69 14
94 12 40 -3 45 -1 48 20 3 17 -1 22 -20 22 -13 0 -32 2 -43 4 -11 2 -29 2 -40
0z"/>
<path d="M3990 7485 c-18 -22 -24 -91 -10 -125 14 -33 53 -49 79 -33 21 13 38
67 33 103 -8 57 -72 92 -102 55z"/>
<path d="M4364 7479 c-27 -30 -27 -125 0 -145 29 -21 63 -17 80 8 23 32 21
120 -2 141 -25 23 -55 21 -78 -4z"/>
<path d="M4242 7293 c2 -21 14 -34 46 -52 24 -13 46 -30 49 -37 10 -27 -7 -61
-37 -74 -26 -11 -37 -10 -72 4 -44 17 -65 10 -55 -18 9 -22 49 -36 102 -36
116 0 155 139 53 191 -21 11 -41 26 -45 34 -3 8 -14 15 -25 15 -15 0 -19 -6
-16 -27z"/>
<path d="M3513 7285 c-3 -9 2 -24 11 -34 21 -23 20 -28 -4 -34 -12 -3 -20 -14
-20 -27 0 -19 4 -22 31 -18 25 4 32 1 40 -19 14 -38 45 -26 41 16 -6 77 -80
164 -99 116z"/>
<path d="M4050 6962 c0 -24 12 -34 69 -56 92 -36 271 -13 271 35 0 23 -20 24
-75 4 -55 -20 -110 -18 -175 6 -92 33 -90 33 -90 11z"/>
<path d="M3585 7479 c-5 -8 -4 -10 3 -5 13 8 15 -4 5 -30 -6 -16 -7 -16 -15 2
-8 19 -8 19 -5 0 3 -30 26 -30 33 -1 7 29 -9 55 -21 34z"/>
<path d="M9656 6528 c-9 -12 -16 -43 -16 -68 0 -25 7 -56 16 -68 36 -52 104
-5 104 72 0 54 -22 86 -60 86 -18 0 -34 -8 -44 -22z"/>
<path d="M9768 6163 c-21 -30 -60 -53 -89 -53 -29 0 -55 -23 -44 -40 9 -14 60
-13 98 4 41 17 80 59 75 82 -4 25 -24 28 -40 7z"/>
<path d="M2490 6093 c-91 -4 -393 -34 -402 -40 -5 -2 -8 -13 -8 -25 0 -19 4
-20 58 -14 185 21 281 27 495 33 234 6 238 6 235 27 -3 20 -9 21 -158 22 -85
0 -184 -1 -220 -3z"/>
<path d="M2427 4468 c-3 -18 -4 -212 -1 -432 l4 -398 -205 -207 c-112 -113
-214 -219 -225 -234 -21 -26 -21 -57 -2 -57 5 0 45 37 88 82 44 46 145 150
226 231 l148 149 51 -43 c63 -52 184 -187 267 -296 42 -56 67 -80 77 -77 8 4
15 11 15 18 0 43 -257 342 -363 423 l-28 22 -6 425 c-6 395 -7 426 -23 426
-12 0 -20 -11 -23 -32z"/>
</g>
</svg>
