<svg width="20" height="21" viewBox="0 0 20 21" fill="none" xmlns="http://www.w3.org/2000/svg">
<path d="M15.0258 14.3476L18.595 17.9159L17.4158 19.0951L13.8475 15.5259C12.5198 16.5903 10.8683 17.1692 9.16666 17.1667C5.02666 17.1667 1.66666 13.8067 1.66666 9.66675C1.66666 5.52675 5.02666 2.16675 9.16666 2.16675C13.3067 2.16675 16.6667 5.52675 16.6667 9.66675C16.6691 11.3684 16.0902 13.0199 15.0258 14.3476ZM13.3542 13.7292C14.4118 12.6417 15.0024 11.1838 15 9.66675C15 6.44341 12.3892 3.83341 9.16666 3.83341C5.94332 3.83341 3.33332 6.44341 3.33332 9.66675C3.33332 12.8892 5.94332 15.5001 9.16666 15.5001C10.6837 15.5025 12.1416 14.9118 13.2292 13.8542L13.3542 13.7292Z" fill="#1D1D1D"/>
</svg>
