<svg width="159" height="159" viewBox="0 0 159 159" fill="none" xmlns="http://www.w3.org/2000/svg">
<circle cx="79.5" cy="79.5" r="79.5" fill="#494949"/>
<circle cx="80" cy="79" r="77" fill="white"/>
<path fill-rule="evenodd" clip-rule="evenodd" d="M40.5 55.5001C60.1695 55.3331 79.836 55.5001 99.5 56.0001C101.833 57.0001 103.5 58.6671 104.5 61.0001C120.133 64.0881 125 73.5 125.5 89.5001C126.5 99 123.5 94 125.5 98.2252C126 101 118.265 103.147 116 102C111.997 94.1401 106.5 95.5 104.5 98C103.5 100 103.5 103 102 103C94 103.667 84.5 103.667 76.5 103C73.4399 93.8021 68.2732 92.3021 61 98.5001C60.51 99.7931 60.3433 101.127 60.5 102.5C52.8411 103.99 50.5078 100.157 53.5 93.0001C45.5 92.6671 37.5 93.3331 29.5 93.0001C28.6198 91.6441 28.2865 90.1441 28.5 88.5001C41.08 88.8221 53.58 88.4891 66 87.5001C66.7203 85.8881 66.5536 84.3881 65.5 83.0001C58.5 82.6671 51.5 82.3331 44.5 82.0001C43.1667 80.6671 43.1667 79.3331 44.5 78.0001C50.1667 77.6671 55.8333 77.3331 61.5 77.0001C62.8333 75.3331 62.8333 73.6671 61.5 72.0001C52.8333 71.6671 44.1667 71.3331 35.5 71.0001C34.1667 69.6671 34.1667 68.3331 35.5 67.0001C47.1667 66.6671 58.8333 66.3331 70.5 66.0001C71.5536 64.6121 71.7203 63.1121 71 61.5001C60.5821 60.5131 50.0821 60.1801 39.5 60.5001C39.366 58.7081 39.6993 57.0421 40.5 55.5001Z" fill="#3C3C3C"/>
<path fill-rule="evenodd" clip-rule="evenodd" d="M65.4999 97.5C72.6274 97.706 74.2939 100.873 70.4999 107C64.4982 107.993 62.3316 105.493 63.9999 99.5C64.7171 98.956 65.2171 98.289 65.4999 97.5Z" fill="#444444"/>
<rect x="26.5" y="55.5" width="9" height="5" rx="2.5" fill="#3F3F3F"/>
<rect x="31" y="77.5" width="9" height="5" rx="2.5" fill="#3F3F3F"/>
<rect x="34" y="66.5" width="43" height="5" rx="2.5" fill="#3F3F3F"/>
<rect x="30" y="60.5" width="43" height="6" rx="3" fill="white"/>
<rect x="22" y="71.5" width="43" height="6" rx="3" fill="white"/>
<rect x="24" y="82.5" width="43" height="6" rx="3" fill="white"/>
<rect x="43" y="77.5" width="43" height="5" rx="2.5" fill="#3F3F3F"/>
<rect x="26.5" y="88.5" width="43" height="5" rx="2.5" fill="#3F3F3F"/>
<rect x="36.5" y="55.5" width="43" height="5" rx="2.5" fill="#3F3F3F"/>
<circle cx="68.5" cy="101" r="8" fill="white"/>
<circle cx="68.5" cy="101" r="6" fill="#3C3C3C"/>
<circle cx="108" cy="102" r="8" fill="white"/>
<circle cx="108" cy="102" r="6" fill="#3C3C3C"/>
</svg>
